<svg xmlns="http://www.w3.org/2000/svg" viewBox="0 0 52 52" fill="none">
  <rect width="52" height="52" rx="16" fill="#ddeeff"/>
  <path d="M26 14c-5 0-9 3.5-9 8 0 2 .8 3.8 2 5-1 1-1.5 2.3-1.5 3.5C17.5 33.5 20.5 36 24 36h4c3.5 0 6.5-2.5 6.5-5.5 0-1.2-.5-2.5-1.5-3.5 1.2-1.2 2-3 2-5 0-4.5-4-8-9-8z" fill="#3971b8" opacity="0.2" stroke="#3971b8" stroke-width="1.8" stroke-linejoin="round"/>
  <line x1="26" y1="22" x2="26" y2="30" stroke="#3971b8" stroke-width="1.8" stroke-linecap="round"/>
  <line x1="22" y1="25" x2="30" y2="25" stroke="#3971b8" stroke-width="1.8" stroke-linecap="round"/>
  <circle cx="21" cy="20" r="1.5" fill="#3971b8"/>
  <circle cx="31" cy="20" r="1.5" fill="#3971b8"/>
</svg>
